<?xml version="1.0" encoding="UTF-8"?>
<svg id="Layer_2" data-name="Layer 2" xmlns="http://www.w3.org/2000/svg" viewBox="0 0 295 295">
  <path d="m147.5.25c81.32,0,147.25,65.93,147.25,147.25s-65.93,147.25-147.25,147.25S.25,228.82.25,147.5,66.17.25,147.5.25Zm137.86,147.27c0-76.1-61.69-137.79-137.79-137.79S9.79,71.42,9.79,147.52s61.69,137.79,137.79,137.79,137.79-61.69,137.79-137.79Z"/>
  <path d="m77.15,112.01c-2.65,2.76-4.78,5.96-6.89,9.15-2.46,3.7-4.91,7.41-7.16,11.24-1.42,2.42-2.77,4.94-3.37,7.69-.47,2.17-.47,4.42-.45,6.65,0,2.18.02,4.35.03,6.53h-.02c-.25,5.12-.5,10.23-.75,15.35-.11,2.18-.21,4.36.06,6.52.27,2.11.89,4.15,1.51,6.18,1.03,3.38,2.08,6.78,3.68,9.93l-.08.05c1.86,2.64,3.54,5.41,5.03,8.27.89,1.72,1.71,3.49,2.87,5.03,1.06,1.4,2.36,2.6,3.62,3.82,1.81,1.74,3.55,3.56,5.21,5.44,1.13,1.27,2.23,2.59,3.08,4.06,1.27,2.25,1.91,4.85,1.82,7.43v.04c.5,1.82,1.01,3.64,1.53,5.46.81,2.85,1.64,5.76,3.31,8.21l.33.25c1.29,3.44,3.98,6.24,7.14,8.12.84.5,1.73.95,2.68,1.18.84.21,1.7.25,2.56.38,2.3.34,4.46,1.28,6.59,2.21l.46-.33c4.41,1.56,9.03,2.52,13.7,2.83,2.26.15,4.56.15,6.75-.42,1.37-.36,2.7-.97,3.82-1.82l.47.12c.32.92,1.1,1.67,2.02,1.96,2.67,2.16,5.38,4.28,8.12,6.35l.1.13c6.43-4.87,12.68-9.98,18.72-15.32l-.18-.21c.93-.8,1.84-1.6,2.77-2.4l.06-.09c.63.46,1.29.87,1.98,1.25.44.24.9.46,1.39.54.44.07.89.02,1.33-.02,5.33-.56,10.66-1.11,16-1.66l.1-.24c3.87-1.67,7.83-3.39,10.84-6.34,1.16-1.14,2.17-2.45,3.37-3.55,1.35-1.23,2.93-2.18,4.29-3.39,2-1.78,3.5-4.12,4.3-6.68l.2-.02c5.03-5.67,9.7-11.66,13.97-17.93h.01c4.53-6.36,7.13-14.09,7.38-21.9h.04c-.08-1.4-.04-2.73.4-4.06,2.41-5.79,4.83-11.1,5.79-17.38.38-3.77-1.01-6.96-2.99-9.69h0c-.42-.09-.76-.42-1.05-.74-.89-.99-1.59-2.14-2.29-3.29l-1.54-2.52-.08.04c-4.22-7.26-7.04-15.33-8.47-23.4-.96-3.85-.49-7.7,1.2-11.63.05-.37.22-.72.45-1l-.06-.04c5.37-6.92,7.56-15.7,9.39-24.32-.11-.49-.21-.97-.31-1.46.21-5.92.4-11.98-1.38-17.63-1.78-5.68-5.97-10.98-11.75-12.42-2.01-.5-4.1-.52-6.16-.54-1.97-.01-3.94-.03-5.91-.05,1.49,2.83,2.98,5.67,4.47,8.5l-.07.31c2.84,1.9,4.17,5.39,4.75,8.75,1.82,10.51-2.47,21.87-10.77,28.57,4.13-8.79,3.78-19.56-.93-28.06-1.5-2.71-3.41-5.22-4.44-8.14-2.17-6.18,0-12.95,2.14-19.13l-.24-.12c.94-1.9,2.68-3.74,2.22-5.59,0-1.45-2.9-1.93-4.34-1.45-10.14,3.86-14.48,14.97-15.93,25.1-.97,9.17-2.9,18.35-5.79,27.04-.3.61-.61,1.23-1,1.68-1.46,2.28-3.66,4.44-6.24,3.15-1.45-.48.48-1.45.34-2.59h0c.34-1.12.68-2.23,1.02-3.34.05-.17.12-.36.24-.48,2.54-9.48.34-20.13-5.81-27.79h-.05c-.03-.44-.25-.9-.48-1.29-3.56-6.2-9.7-10.46-16-13.83-1.01-.54-2.05-1.07-3.16-1.34-1.85-.45-3.8-.15-5.69.14-4.55.72-9.1,1.44-13.65,2.16l-.03-.05c-2.38,1.22-3.11,4.43-2.46,7.03.65,2.63,2.34,4.86,3.66,7.22,3.01,5.33,4.3,11.62,3.64,17.7l.18.29c.54,4.59.61,9.24.2,13.85.21-2.11-1.25-4.09-2.39-5.94-2.76-4.48-4.05-9.84-7.42-13.88-.92-1.11-1.99-2.1-2.81-3.28-.82-1.19-1.39-2.64-1.13-4.06l-.09-.05c-.21-1.69-.78-3.35-1.68-4.8-3.98,1.73-6.91,5.29-8.88,9.15-1.92,3.78-3.06,7.91-4.42,11.93l-.07-.02c-.86,2.31-2.9,3.93-4.53,5.78-2.11,2.38-3.62,5.2-5.29,7.9-4.45,7.23-10.11,13.72-16.67,19.12l-.03-.02ZM147.57,9.73c76.1,0,137.79,61.69,137.79,137.79s-61.69,137.79-137.79,137.79S9.79,223.62,9.79,147.52,71.48,9.73,147.57,9.73Z" style="fill: #fff;"/>
  <path d="m59.3,153.26c0-2.17-.02-4.35-.03-6.53-.01-2.23-.02-4.48.45-6.65.6-2.75,1.95-5.27,3.37-7.69,2.24-3.83,4.7-7.54,7.16-11.24,2.11-3.19,4.25-6.39,6.89-9.15l.03.02c6.56-5.4,12.21-11.89,16.67-19.12,1.67-2.7,3.18-5.53,5.29-7.9,1.64-1.84,3.67-3.47,4.53-5.78l.07.02c1.36-4.02,2.5-8.14,4.42-11.93,1.97-3.86,4.9-7.42,8.88-9.15.9,1.46,1.47,3.11,1.68,4.8l.09.05c-.26,1.42.31,2.87,1.13,4.06.82,1.18,1.89,2.18,2.81,3.28,3.36,4.05,4.65,9.4,7.42,13.88,1.14,1.85,2.6,3.83,2.39,5.94.41-4.61.33-9.25-.2-13.85l-.18-.29c.66-6.08-.63-12.37-3.64-17.7-1.33-2.36-3.01-4.59-3.66-7.22-.65-2.61.09-5.82,2.46-7.03l.03.05c4.55-.72,9.1-1.44,13.65-2.16,1.89-.29,3.83-.59,5.69-.14,1.12.27,2.15.8,3.16,1.34,6.3,3.37,12.45,7.63,16,13.83.23.4.44.85.48,1.3h.05c6.16,7.66,8.36,18.31,5.81,27.79-.13.12-.19.31-.24.48-.34,1.11-.68,2.22-1.02,3.34h0c.14,1.14-1.79,2.11-.34,2.59,2.58,1.29,4.78-.87,6.24-3.15.39-.45.7-1.07,1-1.68,2.9-8.69,4.83-17.86,5.79-27.04,1.45-10.14,5.79-21.24,15.93-25.1,1.45-.48,4.34,0,4.34,1.45.46,1.85-1.28,3.69-2.22,5.59l.24.12c-2.15,6.18-4.31,12.95-2.14,19.13,1.02,2.92,2.94,5.43,4.44,8.14,4.7,8.5,5.06,19.27.93,28.06,8.3-6.7,12.59-18.05,10.77-28.57-.58-3.36-1.91-6.86-4.75-8.75l.07-.31c-1.49-2.83-2.98-5.67-4.47-8.5,1.97.02,3.94.03,5.91.05,2.07.02,4.16.04,6.16.54,5.78,1.44,9.96,6.74,11.75,12.42,1.78,5.65,1.59,11.71,1.38,17.63.1.49.2.97.31,1.46-1.84,8.62-4.03,17.4-9.39,24.32l.06.04c-.24.28-.4.64-.45,1-1.68,3.92-2.16,7.78-1.2,11.63,1.42,8.07,4.25,16.13,8.47,23.4l.08-.04,1.54,2.52c.7,1.14,1.4,2.29,2.29,3.29.29.32.64.65,1.05.74h0c1.97,2.73,3.36,5.92,2.99,9.69-.97,6.28-3.38,11.59-5.79,17.38-.44,1.33-.48,2.66-.4,4.06h-.04c-.25,7.82-2.85,15.55-7.38,21.92h-.01c-4.27,6.26-8.94,12.25-13.97,17.93l-.2.02c-.79,2.56-2.29,4.9-4.3,6.68-1.36,1.21-2.94,2.17-4.29,3.39-1.2,1.11-2.21,2.41-3.37,3.55-3.01,2.95-6.98,4.67-10.84,6.34l-.1.24c-5.33.55-10.66,1.11-16,1.66-.44.04-.89.09-1.33.02-.49-.08-.95-.3-1.39-.54-.69-.37-1.35-.79-1.98-1.25-.97-.7-1.88-1.5-2.69-2.38-.13-.14-.26-.28-.38-.42l.09-.24c-.1-.22-.19-.43-.27-.66-.96-2.54-.89-5.38-.59-8.1.32-2.95.89-5.91.6-8.86l.19-.32-4.5-10.99c-.73-1.79-1.47-3.59-1.82-5.48-.52-2.79-.18-5.66.16-8.48.49-4.09.98-8.19,1.76-12.24,0,0,0,0,0,0,0-2.16,2.02-4.01,1.9-6.18-.06-.96-.54-1.87-.54-2.83,0-1.19.72-2.24,1.42-3.2,3.97-5.51,8.01-11.08,13.29-15.36.31-.26.66-.52,1.06-.54.41-.02.78.2,1.12.41,2.23,1.39,4.47,2.78,6.7,4.17l.4-.09c2.56,2.4,4.01,5.74,5.12,9.07.47,1.43.9,2.88,1.08,4.37.17,1.44.11,2.91.01,4.35-.34,4.94-1.09,9.85-2.26,14.66h-.03c-.41,6.03-.54,12.08-.4,18.12.98-1.48,2.1-2.86,3.22-4.24l7.26-8.92.08.06c1.56-1.18,3.2-2.46,3.88-4.29.42-1.13.42-2.37.76-3.53.73-2.57,2.93-4.44,4.18-6.81,1.07-2.03,1.4-4.34,1.84-6.59.89-4.53,2.29-8.97,4.15-13.19v-.15c.45-4.25-.56-8.57-2.34-12.46-1.77-3.89-4.28-7.4-6.94-10.75-3.31-4.16-6.89-8.11-10.7-11.82l-.06-.04c-5.2-3.92-12.07-4.88-18.59-4.79-1.21.01-2.43.06-3.61.31-1.59.34-3.09,1.04-4.56,1.74-3.64,1.72-7.48,3.61-9.57,7.05-1.6,2.62-2.1,6.02-4.49,7.95l.28.35c-.74,3.3-1.56,6.57-2.47,9.83-.2.7-.4,1.41-.8,2.02-.49.75-1.24,1.3-1.97,1.82-1.12.81-2.25,1.62-3.38,2.43-1.78-2.29-3.07-4.96-3.76-7.78l.04-.02c-1.13-1.62-1.56-3.62-2.14-5.52-1.57-5.24-4.41-10.14-8.36-13.92-3.96-3.78-9.06-6.42-14.48-7.18l-.27-.02c-2.72-.43-5.5,0-8.21.52-1.55.3-3.1.63-4.57,1.23-2.52,1.02-4.67,2.77-6.76,4.51-3.18,2.64-6.32,5.32-9.44,8.02l-.09.05c-1.74,1.46-2.95,3.47-3.89,5.54-3,6.66-3.45,14.15-3.84,21.44l-.24.11c-.05,8.2,4.96,15.48,7.14,23.38.51,3.1,2.31,5.83,4.27,8.28,1.97,2.46,4.16,4.78,5.66,7.56,1.1,2.03,1.99,4.47,4.09,5.44-.54-2.23,1.3-4.23,2.66-6.07,1.64-2.23,2.74-4.91,2.73-7.68,0-1.62-.38-3.21-.76-4.78-.9-3.73-1.79-7.46-2.68-11.19l.14-.1c-.78-1.09-1.57-2.23-1.83-3.54-.17-.87-.1-1.77-.16-2.66-.12-1.87-.81-3.71-1.97-5.18,3.68-1.41,7.71-1.58,11.64-1.68,2.3-.06,4.69-.09,6.78.85,2.87,1.29,4.66,4.14,6.98,6.28,1.61,1.49,3.52,2.66,5,4.29.91,1.01,1.65,2.18,2.15,3.45l-.11.24c-.33,5.26-1.1,10.5-2.29,15.64-.7,3.01-1.55,6.05-1.26,9.13h.12c-.49,1.93,0,4,.87,5.79s2.1,3.39,3.19,5.06c3.02,4.62,5.03,9.9,5.84,15.36l-.6.07c1.45,4.87,2.91,10.04,1.59,14.94-.04.15-.09.31-.14.46-.21.68-.46,1.34-.77,1.97-.09.19-.19.37-.28.56l.08.06c-.48.69-1.07,1.28-1.73,1.79-1.12.86-2.45,1.46-3.82,1.82-2.19.57-4.49.57-6.75.42-4.66-.31-9.29-1.27-13.7-2.83l-.46.33c-2.13-.93-4.3-1.86-6.59-2.21-.85-.13-1.72-.17-2.56-.38-.95-.24-1.84-.68-2.68-1.18-3.16-1.87-5.86-4.67-7.14-8.12l-.33-.25c-1.67-2.45-2.5-5.35-3.31-8.21-.51-1.82-1.03-3.64-1.54-5.46v-.04c.11-2.58-.53-5.18-1.8-7.43-.84-1.48-1.95-2.79-3.08-4.06-1.67-1.88-3.4-3.69-5.21-5.44-1.26-1.22-2.56-2.41-3.62-3.82-1.16-1.54-1.98-3.31-2.87-5.03-1.49-2.87-3.17-5.64-5.03-8.27l.08-.05c-1.6-3.15-2.65-6.55-3.68-9.93-.62-2.03-1.25-4.07-1.51-6.18-.27-2.16-.17-4.34-.06-6.52.25-5.11.5-10.23.75-15.35h.02Zm4.44,30.34c.79,2.19,1.89,4.24,2.99,6.29,1.87,3.47,3.75,6.96,6.12,10.11.89,1.19,1.84,2.32,2.8,3.45,1.46,1.72,2.91,3.45,4.36,5.18l-.15.13c1.73,2.57,4.41,4.36,6.3,6.82,3.4,4.44,3.82,10.41,4.09,15.99l.33.27c.37,3.43,2.66,6.3,4.87,8.95.24.29.48.57.72.86l-.09.1c1.29,1.19,2.61,2.38,4.18,3.16,1.11.55,2.31.88,3.5,1.22,6.89,1.92,13.8,3.84,20.87,4.88l.12-.03c2.08-.22,4.19-.45,6.15-1.21h0c.64-.43,1.27-.88,1.9-1.32.19-.13.41-.27.63-.28,1.81-2.01.67-6.07.49-8.51-.23-3.03-.2-6.24-1.21-9.13h-.01c-.21-1.27-.59-2.5-1.03-3.71-1.74-4.91-4.21-9.57-7.3-13.77h0c-1.52-4.83-1.44-10.14.21-14.92h.02c.09-2.79,1.2-5.46,1.65-8.22.59-3.64,0-7.46-1.68-10.74l-.2.1c-2.22-4.12-6.14-7.18-10.49-8.91-4.35-1.73-9.12-2.22-13.8-2.03-.27.49.12,1.07.43,1.53,1.51,2.23,1.69,5.07,2.42,7.67.97,3.46,2.97,6.58,3.76,10.09.92,4.13.09,8.41-.82,12.55l-.26-.03c-2.26,3.32-3.71,7.19-4.17,11.18-.14,1.23-.16,2.59.61,3.55l-.03.35c-2.16-.14-3.96-1.76-5.17-3.57-1.21-1.82-1.99-3.9-3.25-5.68-2.06-2.92-5.35-5.04-6.53-8.41l.19-.2c-3.79-7.06-7.19-14.33-10.16-21.77h-.08c0-5.59-1.98-11.04-1.96-16.62.01-3.77.94-7.48,1.85-11.14l-.18-.09c.46-.87.92-1.76,1.39-2.64,1.35-2.55,2.69-5.11,4.04-7.66,1.02-1.93,2.04-3.87,3.39-5.58l-.1-.09c2.55-2.68,5.66-4.76,8.75-6.81,1.84-1.22,3.68-2.45,5.68-3.4,5.12-2.45,11.13-2.97,16.59-1.44l.22.2c4.82,1.12,9.46,3.06,13.65,5.7.91.57,1.81,1.19,2.56,1.95.61.62,1.13,1.32,1.62,2.04,3.66,5.32,6.16,11.44,7.25,17.8l-.32.13c.4,1,.69,2.06,1.28,2.95.77,1.17,2.41,1.99,3.57,1.2.87-.59,1.04-1.78,1.18-2.82,1.04-8,4.3-15.7,9.32-22.02l-.11-.08c1.18-1.46,2.94-2.33,4.67-3.09,7.03-3.09,14.95-5.18,22.36-3.18l.28-.11c2.09.24,4.05,1.08,5.93,2,2.21,1.08,4.36,2.26,6.45,3.55,1.75,1.08,3.47,2.24,4.97,3.64,2.24,2.09,3.95,4.65,5.64,7.2v.21c4.32,4.77,7.25,10.77,8.36,17.09,1.12,6.33.41,12.97-2.01,18.92l.29.11c-2.09,7.37-4.97,14.51-8.57,21.27-6.53,6.11-10.66,14.45-17.25,20.5-2.85-4.63-4.44-10.03-4.57-15.46h.29c2.17-6.49,3.01-13.34,3.84-20.14.32-2.66.62-5.46-.48-7.91l-.12.06c-1.87-4.92-5.33-9.22-9.74-12.1-1.44,1.24-3.19,2.07-4.68,3.25-2.7,2.13-4.42,5.27-5.86,8.4-2.4,5.21-4.27,10.67-5.56,16.27l.08.02c-.95,5.63-1.88,11.53-.16,16.98.88,2.78,2.4,5.3,3.65,7.93,1.26,2.61,2.26,5.46,2.02,8.35.55,6.14-1.7,12.73.63,18.74l.2-.05c.13.37.4.69.72.91.41.3.89.47,1.37.64,8.72-.88,18.15-.52,25.13-6.06l.04-.16c2.04-1.71,4.07-3.41,6.11-5.12.98-.83,1.97-1.66,2.87-2.58,2.53-2.58,4.28-5.8,6.34-8.78,2.1-3.02,4.53-5.8,6.96-8.56l-.13-.48c3.84-3.83,6.58-8.66,8.44-13.76,1.85-5.09,2.85-10.47,3.5-15.85l-.11-.03c1.91-6.88,6.38-13,5.06-20.46-.96-1.56-1.24-3.44-1.72-5.21-.82-2.98-2.27-5.74-3.76-8.46-.12-.22-.24-.44-.36-.66l-.11.06c-.61-1.17-1.21-2.35-1.82-3.52l-.02-.26c-3.02-5.63-5.73-11.5-7.05-17.76s-1.18-12.95,1.36-18.82c2.45-5.67,7.01-10.33,8.91-16.22,1.34-4.19,1.23-8.7.82-13.09-.43-4.54-1.26-9.29-4.15-12.82-3.6-4.41-9.56-5.97-15.1-7.28,9.73,8.29,12.36,23.77,5.93,34.82-3.76,6.46-9.95,11.1-16.15,15.27,5.21-9.68,7.07-21.67,2.72-31.77-1.79-4.15-4.56-7.89-5.78-12.24-2.23-7.92,1.02-16.23,4.21-23.8-5.15,1.35-8.86,6-10.72,10.99-1.86,4.99-2.2,10.38-2.93,15.65-.82,5.96-2.14,11.85-3.59,17.69-.82,3.28-1.75,6.7-4.02,9.21-1.73,1.91-4.08,3.12-6.38,4.29-2.81,1.42-5.62,2.85-8.43,4.29.04-.67.16-1.33.34-1.97.22-.78.55-1.53.84-2.28,1.46-3.76,2.22-7.79,2.23-11.83l.06-.14.13-7.76c.02-1.56.05-3.14-.27-4.67-.33-1.61-1.04-3.11-1.73-4.61-1.57-3.36-3.15-6.73-5.27-9.77-1.47-2.1-3.25-4.06-5.58-5.12l-.31-.13c-4.6-2.62-8.75-6.59-14.01-7.11-1.9-.19-3.82.1-5.7.49-2.92.61-5.79,1.46-8.65,2.31h-.04c-.42,1.53-.22,3.22.55,4.61,1.01,1.82,2.88,3.03,4.07,4.74.88,1.27,1.36,2.78,1.78,4.28,1.63,5.8,2.6,11.78,2.89,17.79h-.34c-.5,3.8-.4,7.66-1.08,11.41s-2.31,7.57-5.45,9.74c1.43-7.35-.89-15.33-6.04-20.76l-.18-.22c-.59-2.42-3.04-3.86-4.45-5.92-.67-.98-1.1-2.09-1.52-3.19-.81-2.1-1.62-4.2-2.43-6.31-1.96,1.76-3.63,3.83-4.93,6.12l-.03.34c-.43,2.38-.88,4.78-1.88,6.98-1.48,3.26-4.08,5.85-6.17,8.75-2.33,3.24-4.05,6.89-6.08,10.33-2.03,3.44-4.48,6.76-7.87,8.9l-.13-.14c-.89.8-1.76,1.64-2.6,2.5-.3.31-.61.64-.71,1.06h-.08c-4.33,5.25-8.67,10.51-13,15.77-.97,1.17-1.95,2.38-2.51,3.79l-.15.35c-2.47,4.59-3.64,9.76-4.77,14.85-.72,3.23-1.45,6.46-2.17,9.69l.23.23c-.77,5.17-1.54,10.38-1.17,15.6.37,5.12,1.84,10.11,2.38,15.21Z"/>
  <path d="m65.6,178.21h.23c1.97,10.16,7.19,19.69,14.71,26.82,3.81,3.62,8.33,6.8,10.55,11.56,2.95,6.32,1.28,14.3,5.11,20.13,2.11,3.21,5.59,5.24,9.12,6.76,7.69,3.31,16.2,4.67,24.53,3.94l.59.09c1.35-8.15-.05-16.73-3.93-24.03-1.69-3.19-3.86-6.17-4.98-9.6-2.4-7.38.4-15.29,1.66-22.94.35-2.11.57-4.32-.01-6.38-.62-2.2-2.1-4.05-3.71-5.67-4.19-4.22-9.51-7.3-15.26-8.83l-.02-.02c-.62.43-.87,1.33-.57,2.03l-.13.04c2.33,5.49,6.24,10.44,6.97,16.52.82,6.83-2.05,13.54-3.84,19.98-1.1,3.92-1.96,8.01-1.67,12.1l.25.03c-.11,1.17-.36,2.33-.74,3.44-.54-.58-.99-1.24-1.34-1.95l-.02-.12c-13.62-14.69-27.14-31.1-30.52-51.86-2.9-19.79,4.34-41.52,23.17-50.21,1.45-.48,2.41-.97,3.38-1.45,11.1-3.86,23.66-2.9,33.31,4.83,7.43,6.5,11.29,15.25,12.44,24.29,1.76-11.84,7.34-22.7,18.61-27.97,10.66-5,23.28-3.83,33.29,2.15,9.87,5.9,16.56,16.02,19.34,27.06,3.02,12.02,1.38,24.74-3.25,36.13-4.91,12.08-13.05,22.61-21.68,32.26-1.09,1.22-2.19,2.42-3.3,3.62l-.72-.29c-.87-4.31-4.46-7.43-5.89-11.53-3.04-8.72,1.67-17.61,3.09-26.14.64-3.81.63-7.8-.76-11.46-1.53-4-4.46-5.99-8-8.08l-.28.81c-3.63,5.92-7.28,11.9-9.66,18.42-2.38,6.52-3.44,13.72-1.74,20.45,1.06,4.21,3.15,8.08,4.65,12.16,2.57,6.97,3.41,14.58,2.41,21.94l.49.1c.63.16,1.28.29,1.93.38l.55.07c6.28.55,12.07-1.87,17.38-5.25,17.38-12.55,28-29.93,33.79-49.73,1.4-5.01,2.47-10.09,3.11-15.24v-.06c-.17-3.94-.52-7.87-1.03-11.77h-.02c-.64-3.1-1.81-5.99-3.22-8.82-2.47-4.94-4.7-9.7-5.88-15.13-1.17-5.4-1.62-10.92-2.05-16.41l-.46.02c-.27-5.42,1.94-10.64,4.5-15.41,2.56-4.78,5.55-9.42,7.04-14.64,1.28-4.47,1.29-9.58-.91-13.59-.6-2.5-1.41-5-3.24-6.75-.59-.57-1.27-1.04-1.96-1.51-.66-.45-1.32-.91-1.98-1.36l-.17.1-.06-.1c.22.99.68,1.85,1.27,2.65.89,2.38,1.23,4.95.97,7.47l.15.07c3.07,5.47.73,12.33-2.17,17.91-2.19,4.21-4.78,8.38-8.66,11.12-3.13,2.21-7.15,3.55-9.09,6.86-1.17-.42-2.42-.62-3.66-.57,1.12-5.18,3.87-9.89,4.85-15.09,2.72-14.44-8.64-28.04-8.87-42.73-3.09,4.55-2.33,10.55-2.24,16.06.1,6.24-.85,12.5-2.81,18.43-.54,1.64-1.16,3.27-2.17,4.68-.92,1.27-2.12,2.31-3.31,3.33-5.7,4.89-11.95,9.91-19.42,10.64l-.08.06c-1.49-1.97-1.74-4.75-1.26-7.23.52-2.74,1.78-5.28,2.67-7.93,3.37-10.06.84-21.86-6.35-29.66-6.96-7.54-18.01-11.03-28.04-8.94,5.09,4.9,8.05,11.79,9.06,18.8,1.06,7.4.11,14.97-1.61,22.24-1.77,7.51-4.87,15.46-11.47,19.36.01-5.53.03-11.05.05-16.58,0-1.74,0-3.51-.54-5.16-.86-2.64-2.96-4.63-4.78-6.72-2.83-3.24-5.11-6.97-6.73-10.95l-1.04.19c-3.44,9.63-8.36,18.72-14.54,26.86-10.38,13.7-24.51,25.12-30.52,41.23-4.68,12.53-3.82,26.34-2.86,39.69Zm11.42-2.64h.08c2.97,7.44,6.37,14.71,10.16,21.77l-.19.2c1.18,3.37,4.47,5.49,6.53,8.41,1.26,1.78,2.05,3.86,3.25,5.68,1.2,1.81,3.01,3.43,5.17,3.57l.03-.35c-.77-.97-.76-2.33-.61-3.55.46-3.99,1.91-7.86,4.17-11.18l.26.03c.91-4.14,1.74-8.42.82-12.55-.78-3.51-2.79-6.63-3.76-10.09-.73-2.6-.91-5.44-2.42-7.67-.31-.46-.7-1.04-.43-1.53,4.68-.19,9.45.29,13.8,2.03,4.35,1.73,8.27,4.79,10.49,8.91l.2-.1c1.68,3.28,2.27,7.1,1.68,10.74-.45,2.76-1.56,5.43-1.65,8.22h-.02c-1.65,4.78-1.72,10.09-.21,14.92h0c3.08,4.2,5.56,8.86,7.3,13.78.43,1.21.82,2.44,1.03,3.71h.01c1,2.89.98,6.11,1.21,9.13.18,2.43,1.32,6.49-.49,8.51-.23,0-.44.15-.63.28-.63.44-1.26.88-1.9,1.32h0c-1.96.76-4.07.99-6.15,1.21l-.12.03c-7.07-1.04-13.98-2.96-20.87-4.88-1.19-.33-2.39-.67-3.5-1.22-1.57-.79-2.89-1.97-4.18-3.16l.09-.1c-.24-.29-.48-.57-.72-.86-2.2-2.65-4.5-5.52-4.87-8.95l-.33-.27c-.28-5.59-.69-11.56-4.09-15.99-1.89-2.46-4.57-4.24-6.3-6.82l.15-.13c-1.45-1.72-2.91-3.45-4.36-5.18-.96-1.13-1.91-2.26-2.8-3.45-2.37-3.15-4.25-6.64-6.12-10.11-1.1-2.05-2.21-4.1-2.99-6.29-.54-5.1-2.01-10.09-2.38-15.21-.38-5.21.4-10.43,1.17-15.6l-.23-.23c.72-3.23,1.45-6.46,2.17-9.69,1.13-5.09,2.3-10.25,4.77-14.85l.15-.35c.56-1.42,1.54-2.62,2.51-3.79,4.33-5.26,8.67-10.51,13-15.77h.08c.1-.42.42-.75.71-1.06.84-.86,1.7-1.69,2.6-2.5l.13.14c3.38-2.13,5.84-5.46,7.87-8.9,2.04-3.44,3.75-7.09,6.08-10.33,2.1-2.9,4.69-5.49,6.17-8.75,1-2.2,1.45-4.61,1.88-6.98l.03-.34c1.31-2.28,2.98-4.35,4.93-6.12.81,2.1,1.62,4.2,2.43,6.31.42,1.1.85,2.21,1.52,3.19,1.41,2.06,3.86,3.5,4.45,5.92l.18.22c5.15,5.43,7.47,13.41,6.04,20.76,3.14-2.17,4.76-5.98,5.45-9.74s.58-7.61,1.08-11.4h.34c-.28-6.03-1.26-12.01-2.89-17.81-.42-1.5-.9-3-1.78-4.28-1.19-1.71-3.06-2.92-4.07-4.74-.77-1.39-.97-3.08-.55-4.62h.04c2.86-.84,5.73-1.69,8.65-2.3,1.87-.39,3.79-.68,5.7-.49,5.27.52,9.42,4.49,14.01,7.11l.31.13c2.32,1.06,4.11,3.03,5.58,5.12,2.12,3.03,3.7,6.41,5.27,9.77.7,1.49,1.4,3,1.73,4.61.31,1.53.29,3.11.27,4.67l-.13,7.76-.06.14c-.01,4.04-.77,8.07-2.23,11.83-.29.75-.61,1.5-.84,2.28-.18.64-.3,1.3-.34,1.97,2.81-1.43,5.62-2.86,8.43-4.29,2.3-1.17,4.65-2.38,6.38-4.29,2.27-2.51,3.2-5.93,4.02-9.21,1.45-5.84,2.77-11.73,3.59-17.69.72-5.27,1.07-10.66,2.93-15.65,1.85-4.99,5.57-9.64,10.72-10.99-3.19,7.57-6.44,15.88-4.21,23.8,1.22,4.35,3.99,8.09,5.78,12.24,4.35,10.1,2.49,22.08-2.72,31.77,6.2-4.18,12.39-8.82,16.15-15.27,6.43-11.05,3.79-26.52-5.93-34.82,5.54,1.31,11.5,2.87,15.1,7.28,2.88,3.53,3.72,8.28,4.15,12.82.41,4.38.53,8.9-.82,13.09-1.89,5.89-6.45,10.55-8.91,16.22-2.54,5.87-2.68,12.57-1.36,18.82s4.03,12.13,7.05,17.76l.02.26c.61,1.17,1.21,2.35,1.82,3.52l.11-.06c.12.22.24.44.36.66,1.48,2.72,2.94,5.48,3.76,8.46.48,1.77.77,3.65,1.72,5.21,1.32,7.46-3.15,13.58-5.06,20.46l.11.03c-.66,5.38-1.65,10.76-3.5,15.85-1.85,5.1-4.6,9.93-8.44,13.76l.13.48c-2.43,2.77-4.86,5.54-6.96,8.56-2.06,2.97-3.81,6.19-6.34,8.78-.9.92-1.89,1.75-2.87,2.58-2.04,1.7-4.07,3.41-6.11,5.12l-.04.16c-6.98,5.54-16.41,5.18-25.13,6.06-.48-.17-.96-.34-1.37-.64-.32-.23-.59-.55-.72-.91l-.2.05c-2.33-6.01-.08-12.61-.63-18.74.24-2.89-.77-5.74-2.02-8.35-1.26-2.63-2.78-5.15-3.65-7.93-1.72-5.45-.79-11.35.16-16.98l-.08-.02c1.29-5.6,3.16-11.06,5.56-16.27,1.44-3.13,3.16-6.26,5.86-8.4,1.49-1.18,3.23-2.01,4.68-3.25,4.41,2.88,7.87,7.18,9.74,12.1l.12-.06c1.1,2.44.8,5.25.48,7.91-.83,6.8-1.67,13.64-3.84,20.14h-.29c.13,5.44,1.72,10.83,4.57,15.46,6.59-6.04,10.72-14.39,17.25-20.5,3.6-6.75,6.48-13.9,8.57-21.27l-.29-.11c2.42-5.95,3.12-12.59,2.01-18.92-1.12-6.33-4.04-12.33-8.35-17.09v-.21c-1.71-2.54-3.42-5.11-5.66-7.2-1.5-1.4-3.22-2.56-4.97-3.64-2.09-1.29-4.24-2.48-6.45-3.55-1.88-.92-3.84-1.76-5.93-2l-.28.11c-7.41-2-15.33.09-22.36,3.18-1.73.76-3.49,1.63-4.67,3.09l.11.08c-5.02,6.32-8.28,14.02-9.32,22.02-.14,1.04-.31,2.23-1.18,2.82-1.15.79-2.8-.03-3.57-1.2-.59-.9-.88-1.96-1.28-2.95l.32-.13c-1.09-6.36-3.59-12.48-7.25-17.8-.49-.71-1.01-1.42-1.62-2.04-.76-.76-1.66-1.37-2.56-1.95-4.19-2.64-8.83-4.58-13.65-5.7l-.22-.2c-5.46-1.54-11.47-1.01-16.59,1.44-1.99.95-3.84,2.18-5.68,3.4-3.08,2.05-6.2,4.13-8.75,6.81l.1.09c-1.35,1.71-2.37,3.65-3.39,5.58-1.35,2.55-2.69,5.11-4.04,7.66-.47.88-.93,1.76-1.39,2.64l.18.09c-.92,3.66-1.84,7.37-1.85,11.14-.02,5.59,1.95,11.04,1.96,16.62Z" style="fill: #fff;"/>
  <path d="m105.2,220.74l-.25-.03c-.29-4.09.57-8.18,1.67-12.1,1.8-6.44,4.66-13.16,3.84-19.98-.73-6.07-4.64-11.02-6.97-16.52l.13-.04c-.29-.7-.05-1.6.57-2.03l.02.02c5.74,1.53,11.07,4.61,15.26,8.83,1.61,1.62,3.09,3.48,3.71,5.67.58,2.06.36,4.26.01,6.38-1.26,7.65-4.06,15.56-1.66,22.94,1.12,3.43,3.28,6.41,4.98,9.6,3.88,7.29,5.28,15.88,3.93,24.03l-.59-.09c-8.33.73-16.84-.64-24.53-3.94-3.53-1.52-7.01-3.55-9.12-6.76-3.83-5.83-2.16-13.8-5.11-20.13-2.23-4.76-6.74-7.95-10.55-11.56-7.53-7.13-12.75-16.66-14.71-26.83h-.23c-.97-13.33-1.82-27.15,2.86-39.68,6.01-16.11,20.13-27.53,30.52-41.23,6.17-8.14,11.09-17.23,14.54-26.86l1.04-.19c1.62,3.99,3.91,7.71,6.73,10.95,1.82,2.09,3.92,4.08,4.78,6.72.54,1.65.54,3.42.54,5.16-.01,5.53-.03,11.05-.05,16.58,6.59-3.9,9.69-11.86,11.47-19.36,1.72-7.28,2.67-14.84,1.61-22.24-1.01-7.01-3.97-13.9-9.06-18.8,10.03-2.09,21.08,1.4,28.04,8.94,7.19,7.8,9.72,19.6,6.35,29.66-.89,2.65-2.15,5.19-2.67,7.93-.47,2.48-.23,5.25,1.26,7.23l.08-.06c7.47-.73,13.73-5.75,19.42-10.64,1.19-1.02,2.39-2.06,3.31-3.33,1.01-1.4,1.63-3.04,2.17-4.68,1.96-5.93,2.91-12.19,2.81-18.43-.08-5.5-.85-11.51,2.24-16.06.23,14.7,11.59,28.29,8.87,42.73-.98,5.2-3.74,9.92-4.85,15.09,1.24-.04,2.49.15,3.66.57,1.94-3.31,5.95-4.65,9.09-6.86,3.88-2.74,6.47-6.91,8.66-11.12,2.9-5.57,5.24-12.44,2.17-17.91l-.15-.07c.26-2.52-.08-5.1-.97-7.47,1.35,1.82,3.38,3.28,4.85,5.06.49.6.92,1.24,1.28,1.91,2.2,4.01,2.2,9.12.91,13.59-1.5,5.22-4.48,9.85-7.04,14.64-2.56,4.78-4.77,10-4.5,15.41l.46-.02c.43,5.49.88,11.01,2.05,16.41,1.18,5.43,3.41,10.19,5.88,15.13,1.42,2.83,2.59,5.72,3.22,8.83h.02c.51,3.9.85,7.83,1.03,11.77v.06c-.64,5.15-1.71,10.23-3.11,15.24-5.79,19.79-16.41,37.17-33.79,49.73-5.31,3.38-11.1,5.79-17.38,5.25l-.55-.07c-.65-.09-1.29-.21-1.93-.38l-.49-.1c.99-7.36.16-14.97-2.41-21.94-1.51-4.07-3.59-7.95-4.65-12.16-1.7-6.73-.64-13.93,1.74-20.45,2.38-6.52,6.03-12.49,9.66-18.42l.28-.81c3.55,2.09,6.48,4.08,8,8.08,1.39,3.65,1.4,7.64.76,11.46-1.42,8.54-6.13,17.42-3.09,26.14,1.43,4.1,5.02,7.22,5.89,11.53l.72.29c1.11-1.2,2.21-2.4,3.3-3.62,8.63-9.65,16.77-20.18,21.68-32.26,4.63-11.39,6.27-24.1,3.25-36.13-2.78-11.05-9.47-21.16-19.34-27.06-10.01-5.99-22.63-7.15-33.29-2.15-11.26,5.27-16.85,16.13-18.61,27.97-1.14-9.05-5-17.79-12.44-24.29-9.66-7.72-22.21-8.69-33.31-4.83-.97.48-1.93.97-3.38,1.45-18.83,8.69-26.07,30.41-23.17,50.21,3.38,20.76,16.9,37.17,30.52,51.86l.02.12c.35.71.8,1.37,1.34,1.95.38-1.12.63-2.27.74-3.44Z"/>
  <path d="m222.98,65c1.83,1.76,2.64,4.25,3.24,6.75-.36-.67-.79-1.31-1.28-1.91-1.47-1.79-3.5-3.25-4.85-5.06-.33-.88-.73-1.74-1.22-2.55l.17-.1c.66.45,1.32.91,1.98,1.36.68.47,1.36.94,1.96,1.51Z"/>
  <path d="m154.64,149.79c5.65.33,11.72.56,16.51-2.44,2.91-1.83,5.03-4.68,6.75-7.66.8-1.39,1.54-2.86,1.68-4.46.23-2.59-1.28-5.21-3.56-6.46-2.24-1.23-5.11-1.17-7.4,0-3,.32-5.6,2.44-7.56,4.79-3.79,4.55-6.07,10.33-6.43,16.24Zm-71.47,11.6c1.91-4.31,3.85-8.65,6.65-12.44,2.82-3.83,6.64-7.12,11.21-8.44,2.82-.82,5.86-.87,8.55-2.04s5.06-4.04,4.22-6.86c-.7-2.35-3.75-3.63-5.92-2.51-7.03.4-13.42,5.1-17.34,11.03-4.17,6.3-5.99,13.83-7.42,21.24l.04.02Zm1.84,25.73c-2.19-7.9-7.2-15.18-7.14-23.38l.24-.11c.4-7.29.84-14.78,3.84-21.44.94-2.07,2.14-4.08,3.89-5.54l.09-.05c3.12-2.71,6.26-5.38,9.44-8.02,2.1-1.74,4.24-3.49,6.76-4.51,1.46-.59,3.02-.93,4.57-1.23,2.7-.53,5.48-.95,8.21-.52l.27.02c5.42.76,10.52,3.4,14.48,7.18,3.95,3.78,6.79,8.68,8.36,13.92.57,1.9,1,3.9,2.14,5.52l-.04.02c.69,2.82,1.97,5.49,3.76,7.78,1.12-.81,2.25-1.62,3.38-2.43.73-.53,1.48-1.07,1.97-1.82.4-.61.6-1.32.8-2.02.91-3.26,1.73-6.53,2.47-9.83l-.28-.35c2.39-1.93,2.89-5.33,4.49-7.95,2.1-3.44,5.93-5.33,9.57-7.05,1.47-.7,2.97-1.4,4.56-1.74,1.18-.25,2.4-.3,3.61-.31,6.52-.08,13.38.87,18.59,4.79l.06.04c3.81,3.71,7.39,7.66,10.7,11.82,2.66,3.35,5.17,6.86,6.94,10.75,1.78,3.89,2.79,8.21,2.35,12.46v.15c-1.88,4.22-3.28,8.66-4.17,13.19-.44,2.25-.78,4.57-1.84,6.59-1.25,2.37-3.44,4.24-4.18,6.81-.33,1.16-.34,2.4-.76,3.53-.68,1.83-2.32,3.11-3.88,4.29l-.08-.06-7.26,8.92c-1.12,1.38-2.24,2.76-3.22,4.24-.14-6.04,0-12.09.4-18.12h.03c1.17-4.81,1.92-9.72,2.26-14.66.1-1.45.16-2.91-.01-4.35-.18-1.49-.6-2.94-1.08-4.37-1.11-3.33-2.56-6.67-5.12-9.07l-.4.09c-2.23-1.39-4.47-2.78-6.7-4.17-.34-.21-.71-.43-1.12-.41-.4.02-.75.28-1.06.54-5.28,4.27-9.32,9.85-13.29,15.36-.7.97-1.42,2.01-1.42,3.2,0,.97.48,1.87.54,2.83.13,2.17-1.89,4.02-1.9,6.18,0,0,0,0,0,0-.78,4.05-1.27,8.15-1.76,12.24-.34,2.82-.68,5.69-.16,8.48.35,1.9,1.09,3.7,1.82,5.48l4.5,10.99-.19.32c.29,2.95-.28,5.91-.6,8.86-.3,2.71-.37,5.56.59,8.1l-.56.03c-6.3,3.21-9.89,10.46-16.37,13.3-.32.14-.67.28-1.02.24-.34-.03-.65-.22-.95-.41-2.28-1.43-4.57-2.86-6.85-4.28l-.37-.12c.05-.15.09-.3.14-.46,1.32-4.9-.14-10.08-1.59-14.94l.6-.07c-.81-5.46-2.81-10.74-5.84-15.36-1.09-1.67-2.32-3.26-3.19-5.06s-1.36-3.86-.87-5.79h-.12c-.29-3.08.56-6.12,1.26-9.13,1.19-5.14,1.96-10.37,2.29-15.64l.11-.24c-.51-1.26-1.24-2.44-2.15-3.45-1.48-1.63-3.38-2.8-5-4.29-2.31-2.14-4.1-4.99-6.98-6.28-2.1-.95-4.48-.92-6.78-.85-3.94.1-7.97.27-11.64,1.68,1.16,1.48,1.85,3.31,1.97,5.18.06.89-.01,1.79.16,2.66.27,1.31,1.06,2.45,1.83,3.54l-.14.1c.89,3.73,1.79,7.46,2.68,11.19.38,1.57.75,3.17.76,4.78,0,2.77-1.1,5.46-2.73,7.68-1.36,1.84-3.19,3.84-2.66,6.07-2.1-.97-2.99-3.4-4.09-5.44-1.5-2.78-3.69-5.1-5.66-7.56-1.96-2.45-3.77-5.18-4.27-8.28Z"/>
  <path d="m168.62,128.76c2.29-1.16,5.15-1.23,7.4,0,2.28,1.26,3.79,3.87,3.56,6.46-.14,1.59-.88,3.07-1.68,4.46-1.72,2.98-3.84,5.83-6.75,7.66-4.79,3.01-10.86,2.78-16.51,2.44.36-5.91,2.64-11.69,6.43-16.24,1.96-2.35,4.56-4.47,7.56-4.79Z" style="fill: #fff;"/>
  <path d="m136.7,253.53c-.92-.29-1.7-1.04-2.02-1.96l-.47-.12c.67-.51,1.25-1.11,1.73-1.79l-.08-.06c.1-.18.19-.37.28-.56l.39.19c2.36,2.27,4.91,4.35,7.6,6.22.21.14.44.3.7.32.33.03.65-.14.93-.32,6.08-3.68,12.43-7.63,15.87-13.84.41-.74.88-1.59,1.71-1.77l.26-.24c.81.88,1.72,1.68,2.69,2.38l-.06.09c-.93.8-1.84,1.6-2.77,2.4l.18.21c-6.04,5.34-12.29,10.45-18.72,15.32l-.1-.13c-2.74-2.08-5.45-4.2-8.12-6.35Z"/>
  <path d="m107.89,129.11c2.17-1.12,5.22.16,5.92,2.51.84,2.82-1.53,5.69-4.22,6.86s-5.74,1.22-8.55,2.04c-4.58,1.33-8.39,4.61-11.21,8.44-2.8,3.79-4.74,8.13-6.65,12.44l-.04-.02c1.43-7.41,3.26-14.94,7.42-21.24,3.92-5.92,10.31-10.63,17.34-11.03Z" style="fill: #fff;"/>
</svg>